<?xml version="1.0" encoding="utf-8"?><svg viewBox="0 0 88 88" xmlns="http://www.w3.org/2000/svg" xmlns:xlink="http://www.w3.org/1999/xlink"><style>:root>svg{display:none}:root>svg:target{display:block}</style><svg fill="none" viewBox="0 0 26 26" id="3d-cube" xmlns="http://www.w3.org/2000/svg"><g clip-path="url(#aclip0_68_361)" fill="#2B3350"><path d="M22.2 7.029a1 1 0 000-1.732L13.527.289a1 1 0 00-1 0L3.852 5.297a1 1 0 000 1.732l8.674 5.008a1 1 0 001 0L22.2 7.03zM13.8 24.268a1 1 0 001.5.866l8.678-5.01a1 1 0 00.5-.866v-9.094a1 1 0 00-1.5-.866l-8.677 5.01a1 1 0 00-.5.866v9.094zM3.074 9.298a1 1 0 00-1.5.866v9.094a1 1 0 00.5.866l8.677 5.01a1 1 0 001.5-.866v-9.094a1 1 0 00-.5-.866l-8.677-5.01z"/></g><defs><clipPath id="aclip0_68_361"><path fill="#fff" d="M0 0h26v26H0z"/></clipPath></defs></svg><svg viewBox="0 0 24 24" id="arrow"><path d="M9 18l6-6-6-6" stroke="#2B3350" stroke-width="1.5" stroke-linecap="round" stroke-linejoin="round"/></svg><svg fill="none" viewBox="0 0 8 14" id="arrow-black" xmlns="http://www.w3.org/2000/svg"><path d="M7 1L1 7l6 6" stroke="#576077" stroke-width="2" stroke-linecap="round" stroke-linejoin="round"/></svg><svg fill="none" viewBox="0 0 24 24" id="arrow-down" xmlns="http://www.w3.org/2000/svg"><path d="M6 9l6 6 6-6" stroke="#2B3350" stroke-width="1.5" stroke-linecap="round" stroke-linejoin="round"/></svg><svg fill="none" viewBox="0 0 8 14" id="blue-arrow" xmlns="http://www.w3.org/2000/svg"><path d="M7 1L1 7l6 6" stroke="#0074D4" stroke-width="2" stroke-linecap="round" stroke-linejoin="round"/></svg><svg fill="none" viewBox="0 0 24 24" id="call_consultation" xmlns="http://www.w3.org/2000/svg"><path d="M16 2v6h6M23 1l-7 7M22 16.92v3a1.998 1.998 0 01-2.18 2 19.791 19.791 0 01-8.63-3.07 19.5 19.5 0 01-6-6 19.79 19.79 0 01-3.07-8.67A2 2 0 014.11 2h3a2 2 0 012 1.72c.127.96.362 1.903.7 2.81a2 2 0 01-.45 2.11L8.09 9.91a16.001 16.001 0 006 6l1.27-1.27a2 2 0 012.11-.45c.908.339 1.85.574 2.81.7A2 2 0 0122 16.92z" stroke="#959AAE" stroke-width="2" stroke-linecap="round" stroke-linejoin="round"/></svg><svg fill="none" viewBox="0 0 34 34" id="calling" xmlns="http://www.w3.org/2000/svg"><g clip-path="url(#gclip0_68_390)" fill="#959AAE"><path d="M23.313 14.106a.854.854 0 00-1.191-.228.862.862 0 00-.235 1.192 3.462 3.462 0 01-.005 3.885.86.86 0 00.23 1.193.865.865 0 001.194-.236 5.174 5.174 0 00.007-5.806z"/><path d="M25.732 11.601a.818.818 0 00-.566-.318.852.852 0 00-.642.186.86.86 0 00-.136 1.206 6.912 6.912 0 01-.01 8.672.857.857 0 101.341 1.07c2.548-3.19 2.554-7.637.013-10.816z"/><path fill-rule="evenodd" clip-rule="evenodd" d="M15.628 17.003c0 5.64 3.903 3.018 3.904 6.608 0 3.463.649 4.805-3.738 4.804-.495-.054-4.898.857-4.9-11.412-.002-12.271 4.401-11.364 4.897-11.417 4.398 0 3.738 1.341 3.738 4.804.001 3.591-3.902.972-3.901 6.613z"/></g><defs><clipPath id="gclip0_68_390"><path fill="#fff" transform="rotate(45 8.465 20.535)" d="M0 0h24v24H0z"/></clipPath></defs></svg><svg fill="none" viewBox="0 0 24 24" id="calling2" xmlns="http://www.w3.org/2000/svg"><path d="M14.418 5.49a.854.854 0 00-1.004.68.862.862 0 00.678 1.01 3.462 3.462 0 012.743 2.75.86.86 0 001.006.682.865.865 0 00.677-1.012 5.174 5.174 0 00-4.1-4.11z" fill="#576077"/><path d="M14.356 2.008a.817.817 0 00-.625.176.852.852 0 00-.323.584.86.86 0 00.757.95 6.912 6.912 0 016.126 6.139.857.857 0 101.704-.192c-.454-4.058-3.595-7.206-7.639-7.657z" fill="#576077"/><path fill-rule="evenodd" clip-rule="evenodd" d="M11.032 12.972c3.989 3.988 4.894-.625 7.434 1.913 2.448 2.448 3.856 2.938.753 6.04-.388.312-2.857 4.07-11.534-4.605C-.993 7.644 2.762 5.172 3.074 4.784c3.11-3.11 3.592-1.695 6.04.753 2.54 2.54-2.071 3.447 1.918 7.435z" fill="#576077"/></svg><svg fill="none" viewBox="0 0 24 24" id="cart" xmlns="http://www.w3.org/2000/svg"><path d="M4 6.414L.757 3.172l1.415-1.415L5.414 5h15.242a1 1 0 01.958 1.287l-2.4 8a1 1 0 01-.958.713H6v2h11v2H5a1 1 0 01-1-1V6.414zM5.5 23a1.5 1.5 0 110-3 1.5 1.5 0 010 3zm12 0a1.5 1.5 0 110-3 1.5 1.5 0 010 3z" fill="#2B3350"/></svg><svg fill="none" viewBox="0 0 16 16" id="dropout-arrow" xmlns="http://www.w3.org/2000/svg"><path d="M4 6l4 4 4-4" stroke="#959AAE" stroke-width="1.5" stroke-linecap="round" stroke-linejoin="round"/></svg><svg fill="none" viewBox="0 0 24 24" id="location" xmlns="http://www.w3.org/2000/svg"><path d="M17.945 2.462A8.35 8.35 0 0012 0a8.35 8.35 0 00-5.943 2.462c-2.938 2.937-3.303 8.464-.79 11.813l4.267 6.163c1.193 1.723 3.74 1.723 4.933 0l4.257-6.15c2.523-3.362 2.157-8.889-.78-11.826zm-5.866 8.934A3.072 3.072 0 019.01 8.328a3.072 3.072 0 013.068-3.068 3.072 3.072 0 013.068 3.068 3.072 3.072 0 01-3.068 3.068z" fill="#576077"/></svg><svg fill="none" viewBox="0 0 24 25" id="mail" xmlns="http://www.w3.org/2000/svg"><path d="M16.939 3.695A5.057 5.057 0 0122 8.745v7.9c0 2.79-2.27 5.05-5.061 5.05H7.06A5.057 5.057 0 012 16.645v-7.9a5.05 5.05 0 015.06-5.05h9.879zm1.131 5.2a.76.76 0 00-.561.2L13 12.695a1.566 1.566 0 01-2 0l-4.5-3.6a.76.76 0 00-1 .07c-.27.27-.3.7-.071 1l.131.13 4.55 3.55a3.143 3.143 0 003.909 0l4.511-3.61.08-.08a.773.773 0 00-.011-1 .84.84 0 00-.529-.26z" fill="#576077"/></svg><svg fill="none" viewBox="0 0 24 24" id="menu" xmlns="http://www.w3.org/2000/svg"><path d="M3 12h18M3 6h18M3 18h18" stroke="#2B3350" stroke-width="2" stroke-linecap="round" stroke-linejoin="round"/></svg><svg fill="none" viewBox="0 0 24 24" id="menu-style2" xmlns="http://www.w3.org/2000/svg"><path d="M3 12h18M3 6h14M3 18h9" stroke="#fff" stroke-width="2" stroke-linecap="round" stroke-linejoin="round"/></svg><svg fill="none" viewBox="0 0 24 24" id="phone" xmlns="http://www.w3.org/2000/svg"><g clip-path="url(#oclip0_68_1816)" fill="#2B3350"><path d="M18.312 9.107a.854.854 0 00-1.191-.229.862.862 0 00-.235 1.193 3.462 3.462 0 01-.004 3.885h-.001a.859.859 0 00.23 1.193.865.865 0 001.194-.237 5.174 5.174 0 00.007-5.805z"/><path d="M20.731 6.602a.817.817 0 00-.567-.318.852.852 0 00-.641.185.86.86 0 00-.136 1.207 6.912 6.912 0 01-.01 8.672.857.857 0 101.341 1.07c2.548-3.19 2.554-7.638.013-10.816z"/><path fill-rule="evenodd" clip-rule="evenodd" d="M10.627 12.003c0 5.64 3.903 3.018 3.904 6.609 0 3.462.649 4.804-3.738 4.804-.495-.055-4.898.856-4.9-11.413C5.891-.268 10.294.64 10.79.586c4.398 0 3.738 1.341 3.739 4.804 0 3.591-3.903.972-3.902 6.613z"/></g><defs><clipPath id="oclip0_68_1816"><path fill="#fff" transform="rotate(90 12 12)" d="M0 0h24v24H0z"/></clipPath></defs></svg><svg fill="none" viewBox="0 0 28 28" id="premium" xmlns="http://www.w3.org/2000/svg"><g clip-path="url(#pclip0_68_353)"><path d="M24.22 19.96a4.077 4.077 0 01-1.634-1.443c-2.694-4.114.36-7.16 2.42-8.61.67-.473.958-1.315.716-2.096l-.708-2.284a1.878 1.878 0 00-1.761-1.322c-2.936-.058-4.921-1.875-5.48-3.102A1.884 1.884 0 0016.063 0h-4.125c-.735 0-1.407.433-1.712 1.103-.464 1.022-2.324 3.04-5.48 3.102a1.878 1.878 0 00-1.76 1.322l-.708 2.284c-.242.781.046 1.623.716 2.095 2.06 1.45 5.113 4.497 2.42 8.611a4.077 4.077 0 01-1.635 1.442 1.877 1.877 0 00-.65 2.812l1.477 1.95c.55.726 1.535.955 2.344.544 1.803-.916 4.365-1.258 6.331 2.311a.821.821 0 001.438 0c1.966-3.57 4.528-3.227 6.331-2.311.808.41 1.794.182 2.344-.544l1.477-1.95c.712-.94.394-2.29-.65-2.812zM14 3.335a2.464 2.464 0 012.46 2.461A2.464 2.464 0 0114 8.258a2.464 2.464 0 01-2.461-2.461 2.464 2.464 0 012.46-2.461zm0 18.047a.82.82 0 110-1.641.82.82 0 010 1.641zm3.502-3.281h-7.004a.82.82 0 010-1.64h7.004a.82.82 0 010 1.64zm0-3.281h-7.004a.82.82 0 010-1.641h7.004a.82.82 0 010 1.64zm0-3.282h-7.004a.82.82 0 010-1.64h7.004a.82.82 0 010 1.64zM14 6.617a.821.821 0 000-1.64.821.821 0 000 1.64z" fill="#2B3350"/></g><defs><clipPath id="pclip0_68_353"><path fill="#fff" d="M0 0h28v28H0z"/></clipPath></defs></svg><svg fill="none" viewBox="0 0 88 88" id="qu-1" xmlns="http://www.w3.org/2000/svg"><path d="M82.5 28.875H33A4.125 4.125 0 0028.875 33v49.5A4.125 4.125 0 0033 86.625h49.5a4.125 4.125 0 004.125-4.125V33a4.125 4.125 0 00-4.125-4.125zm-2.75 38.5H77V79.75a1.375 1.375 0 01-1.375 1.375h-5.5a1.375 1.375 0 01-1.375-1.375V67.375H66a1.375 1.375 0 01-1.166-2.104l6.875-11a1.429 1.429 0 012.337 0l6.875 11a1.376 1.376 0 01-1.171 2.104z" fill="url(#qpaint0_linear_68_303)"/><path d="M68.523 50.895l-31.81 5.3a10.974 10.974 0 00-12.218-7.932L13.714 2.437a1.375 1.375 0 00-1.535-1.046L2.554 2.766a1.375 1.375 0 10.39 2.72l8.38-1.196 10.519 44.703a11 11 0 1015.282 10.132c0-.07-.01-.137-.011-.207l31.862-5.31a1.375 1.375 0 00-.453-2.713zm-42.398 16.48a8.25 8.25 0 118.25-8.25 8.258 8.258 0 01-8.25 8.25z" fill="#0074D4"/><path d="M33.274 26.1L53.9 21.973a1.375 1.375 0 001.073-1.624L52.222 6.6a1.375 1.375 0 00-1.623-1.072L29.974 9.653a1.375 1.375 0 00-1.072 1.622l2.75 13.75a1.376 1.376 0 001.622 1.074zM49.8 8.5l2.212 11.053-17.933 3.58-2.211-11.053L49.8 8.5zM67.352 24.497a1.375 1.375 0 00-1.587-1.1l-31.625 5.5a1.376 1.376 0 00-1.115 1.609l4.125 22a1.375 1.375 0 001.586 1.1l31.625-5.5a1.374 1.374 0 001.117-1.609l-4.126-22zM39.6 50.663l-3.618-19.296L64.9 26.338l3.619 19.297-28.92 5.029z" fill="#0074D4"/><defs><linearGradient id="qpaint0_linear_68_303" x1="57.75" y1="28.875" x2="57.75" y2="86.625" gradientUnits="userSpaceOnUse"><stop stop-color="#EEF2F5"/><stop offset="1" stop-color="#FAFBFC"/></linearGradient></defs></svg><svg fill="none" viewBox="0 0 88 88" id="qu-2" xmlns="http://www.w3.org/2000/svg"><path d="M79.75 74.25h-.778l-1.95-28.6 3.965-7.91c.093-.192.14-.402.138-.615V19.25a1.375 1.375 0 00-1.375-1.375h-9.625a1.375 1.375 0 00-1.375 1.375v5.5H66v-5.5a1.375 1.375 0 00-1.375-1.375H55a1.375 1.375 0 00-1.375 1.375v5.5h-2.75v-5.5a1.375 1.375 0 00-1.375-1.375h-9.625A1.375 1.375 0 0038.5 19.25v17.875c0 .213.05.424.144.615l3.959 7.91-1.95 28.6h-.778a4.125 4.125 0 00-4.125 4.125v6.875a1.375 1.375 0 001.375 1.375H82.5a1.375 1.375 0 001.375-1.375v-6.875a4.125 4.125 0 00-4.125-4.125zm-1.537-37.125L74.775 44H44.85l-3.438-6.875h36.8zm2.912 46.75H38.5v-5.5A1.375 1.375 0 0139.875 77H79.75a1.375 1.375 0 011.375 1.375v5.5z" fill="url(#rpaint0_linear_68_314)"/><path d="M48.125 55v-1.163c0-2.187-.594-4.333-1.719-6.208a9.283 9.283 0 01-.785-7.927l1.678-4.699A23.715 23.715 0 0031.956 4.366C22.263 1.375 22.263 1.375 22 1.375a1.375 1.375 0 00-1.375 1.375v4.784c-1.723 1.204-6.86 4.793-10.175 7.073a8.34 8.34 0 00-3.597 6.843 4.688 4.688 0 004.813 4.738 4.7 4.7 0 004.262-2.699l4.576.572a6.24 6.24 0 003.509-.586 7.798 7.798 0 01-2.6 7.384l-6.827 5.775A17.843 17.843 0 008.25 50.277V55a4.125 4.125 0 00-4.125 4.125V66A1.375 1.375 0 005.5 67.375h45.375A1.375 1.375 0 0052.25 66v-6.875A4.125 4.125 0 0048.125 55zm-5.05-38.537a20.92 20.92 0 011.633 17.615l-1.67 4.697a12.02 12.02 0 001.017 10.267 9.322 9.322 0 011.32 4.795V55h-2.75a12.176 12.176 0 00-1.273-5.622c-.275-.862-3.117-4.433-1.25-9.286l1.908-4.962A20.075 20.075 0 0029.623 8.882l-.993-.33L27.924 6l3.221.994a20.915 20.915 0 0111.93 9.47zM11 50.277a15.098 15.098 0 015.356-11.55l6.826-5.775a10.568 10.568 0 003.144-11.439 6.24 6.24 0 001.174-3.638 1.375 1.375 0 00-2.75 0 3.48 3.48 0 01-3.912 3.454l-4.576-.567a2.773 2.773 0 00-2.832 1.564 1.917 1.917 0 01-1.837 1.115 1.94 1.94 0 01-1.989-2.07 5.537 5.537 0 012.397-4.493c4.047-2.779 10.787-7.496 10.787-7.496a1.375 1.375 0 00.587-1.132V4.602l1.429.437 1.375 4.95a1.375 1.375 0 00.89.938l1.69.563a17.325 17.325 0 0110.688 22.65l-1.91 4.965C35.2 45.2 38.654 49.83 38.895 50.607a9.443 9.443 0 01.98 4.393H11v-4.723zm38.5 14.348H6.875v-5.5A1.375 1.375 0 018.25 57.75h39.875a1.375 1.375 0 011.375 1.375v5.5z" fill="#0074D4"/><defs><linearGradient id="rpaint0_linear_68_314" x1="59.813" y1="17.875" x2="59.813" y2="86.625" gradientUnits="userSpaceOnUse"><stop stop-color="#EEF2F5"/><stop offset="1" stop-color="#FAFBFC"/></linearGradient></defs></svg><svg fill="none" viewBox="0 0 88 88" id="qu-3" xmlns="http://www.w3.org/2000/svg"><path d="M84.427 78.257a1.38 1.38 0 01-1.116 0l-5.636-2.502-5.631 2.502a1.378 1.378 0 01-1.117 0L65.3 75.754l-5.625 2.501a1.373 1.373 0 01-1.117 0l-5.626-2.501-5.627 2.501a1.373 1.373 0 01-1.117 0l-1.502-.667V82.5a4.13 4.13 0 004.126 4.125h33a4.13 4.13 0 004.124-4.125v-4.914l-1.51.671z" fill="url(#spaint0_linear_68_321)"/><path d="M84.21 46.184l-16.5-11.785a4.124 4.124 0 00-4.795-.001l-16.5 11.785v.001a4.135 4.135 0 00-1.727 3.356v22.29l2.06.916 5.626-2.502a1.372 1.372 0 011.117 0l5.627 2.502 5.624-2.502a1.371 1.371 0 011.118 0l5.625 2.502 5.631-2.503a1.381 1.381 0 011.117 0l5.636 2.503 2.068-.919V49.54a4.135 4.135 0 00-1.727-3.356zm-18.897-6.309a4.813 4.813 0 11-4.813 4.813 4.818 4.818 0 014.813-4.813zM79.063 66h-27.5a1.375 1.375 0 110-2.75h27.5a1.375 1.375 0 010 2.75zm0-8.25h-27.5a1.375 1.375 0 110-2.75h27.5a1.375 1.375 0 010 2.75z" fill="url(#spaint1_linear_68_321)"/><path d="M67.457 32.776a12.403 12.403 0 00-4.454-13.833 9.556 9.556 0 01-3.465-4.812 12.244 12.244 0 00-11.662-8.548 9.422 9.422 0 01-5.606-1.838 12.144 12.144 0 00-14.415 0 9.422 9.422 0 01-5.606 1.838 12.244 12.244 0 00-11.663 8.549 9.557 9.557 0 01-3.464 4.81 12.403 12.403 0 00-4.454 13.834 9.642 9.642 0 010 5.947 12.402 12.402 0 004.454 13.833 9.558 9.558 0 013.464 4.812 12.243 12.243 0 0011.663 8.549 9.422 9.422 0 015.606 1.837 12.144 12.144 0 0014.415 0 9.422 9.422 0 015.606-1.837 12.244 12.244 0 0011.662-8.55 9.557 9.557 0 013.465-4.81 12.402 12.402 0 004.454-13.834 9.641 9.641 0 010-5.947zm-2.592 6.797a9.646 9.646 0 01-3.464 10.759 12.294 12.294 0 00-4.455 6.186 9.523 9.523 0 01-9.07 6.65 12.112 12.112 0 00-7.208 2.362 9.445 9.445 0 01-11.211 0 12.112 12.112 0 00-7.208-2.363 9.524 9.524 0 01-9.07-6.65 12.294 12.294 0 00-4.455-6.185A9.645 9.645 0 015.26 39.573a12.408 12.408 0 000-7.647 9.645 9.645 0 013.464-10.758 12.293 12.293 0 004.454-6.187 9.523 9.523 0 019.07-6.649c2.594.005 5.121-.824 7.209-2.363a9.442 9.442 0 0111.211 0 12.112 12.112 0 007.208 2.363 9.523 9.523 0 019.07 6.65 12.293 12.293 0 004.455 6.186 9.646 9.646 0 013.464 10.758 12.408 12.408 0 000 7.647z" fill="#0074D4"/><path d="M28.081 52.705a1.357 1.357 0 001.784-.735l13.337-32.065a1.379 1.379 0 00-.728-1.8 1.354 1.354 0 00-1.784.735L27.353 50.906a1.379 1.379 0 00.728 1.8zM26.056 33.072c4.001 0 7.256-3.716 7.256-8.284 0-4.567-3.255-8.284-7.256-8.284-4 0-7.255 3.716-7.255 8.284 0 4.568 3.254 8.284 7.255 8.284zm0-13.819c2.498 0 4.53 2.483 4.53 5.535s-2.032 5.535-4.53 5.535-4.53-2.483-4.53-5.535 2.032-5.535 4.53-5.535zM44.069 38.427c-4.001 0-7.256 3.716-7.256 8.284 0 4.568 3.255 8.285 7.256 8.285 4 0 7.255-3.717 7.255-8.285s-3.254-8.284-7.255-8.284zm0 13.82c-2.498 0-4.53-2.484-4.53-5.536 0-3.051 2.032-5.534 4.53-5.534s4.53 2.483 4.53 5.534c0 3.052-2.032 5.535-4.53 5.535z" fill="#0074D4"/><path d="M35.063 9.63a1.375 1.375 0 000 2.75 23.293 23.293 0 0123.162 23.37 1.363 1.363 0 102.724 0A26.034 26.034 0 0035.064 9.63zM35.062 59.12A23.293 23.293 0 0111.9 35.75a1.362 1.362 0 10-2.725 0 26.034 26.034 0 0025.887 26.12 1.375 1.375 0 000-2.75z" fill="#0074D4"/><defs><linearGradient id="spaint0_linear_68_321" x1="65.313" y1="33.629" x2="65.313" y2="86.625" gradientUnits="userSpaceOnUse"><stop stop-color="#EEF2F5"/><stop offset="1" stop-color="#FAFBFC"/></linearGradient><linearGradient id="spaint1_linear_68_321" x1="65.313" y1="33.629" x2="65.313" y2="86.625" gradientUnits="userSpaceOnUse"><stop stop-color="#EEF2F5"/><stop offset="1" stop-color="#FAFBFC"/></linearGradient></defs></svg><svg fill="none" viewBox="0 0 24 24" id="search-loup" xmlns="http://www.w3.org/2000/svg"><g opacity=".3" stroke="#2B3350" stroke-width="2" stroke-linecap="round" stroke-linejoin="round"><path d="M11 19a8 8 0 100-16 8 8 0 000 16zM21 21l-4.35-4.35"/></g></svg><svg fill="none" viewBox="0 0 24 24" id="send" xmlns="http://www.w3.org/2000/svg"><path d="M22 2L11 13M22 2l-7 20-4-9-9-4 20-7z" stroke="#2B3350" stroke-width="2" stroke-linecap="round" stroke-linejoin="round"/></svg><svg fill="none" viewBox="0 0 20 20" id="shopping-cart" xmlns="http://www.w3.org/2000/svg"><g clip-path="url(#vclip0_68_1812)" stroke="#2B3350" stroke-width="2" stroke-linecap="round" stroke-linejoin="round"><path d="M7.5 18.333a.833.833 0 100-1.666.833.833 0 000 1.666zM16.666 18.333a.833.833 0 100-1.667.833.833 0 000 1.667zM.833.833h3.333L6.4 11.992a1.667 1.667 0 001.666 1.341h8.1a1.667 1.667 0 001.667-1.341L19.166 5H5"/></g><defs><clipPath id="vclip0_68_1812"><path fill="#fff" d="M0 0h20v20H0z"/></clipPath></defs></svg><svg fill="none" viewBox="0 0 13 12" id="star" xmlns="http://www.w3.org/2000/svg"><path d="M5.549.927c.3-.921 1.603-.921 1.902 0l.733 2.255a1 1 0 00.95.691h2.372c.969 0 1.372 1.24.588 1.81l-1.918 1.393a1 1 0 00-.364 1.118l.733 2.256c.3.92-.755 1.687-1.539 1.118l-1.918-1.394a1 1 0 00-1.176 0l-1.918 1.394c-.784.569-1.838-.197-1.54-1.118l.734-2.256a1 1 0 00-.364-1.118L.906 5.682c-.784-.569-.381-1.809.588-1.809h2.371a1 1 0 00.951-.69L5.55.926z" fill="#FFCE20"/></svg><svg fill="none" viewBox="0 0 29 29" id="substract" xmlns="http://www.w3.org/2000/svg"><path fill-rule="evenodd" clip-rule="evenodd" d="M8 3.156c0-.744-.782-1.22-1.405-.814-.059.039-.118.077-.176.117-.555.373-.477 1.253-.424 1.92.003.04.005.08.005.121v6a1.5 1.5 0 01-3 0V8.607c0-.955-1.127-1.303-1.545-.445A14.442 14.442 0 000 14.5c0 2.273.523 4.423 1.455 6.338.418.858 1.545.51 1.545-.445V17.5a1.5 1.5 0 013 0v6A1.5 1.5 0 014.5 25c.645.614 1.346 1.17 2.095 1.658.623.406 1.405-.07 1.405-.814V25.5a1.5 1.5 0 013 0v2.292c0 .46.313.864.764.95a14.581 14.581 0 005.472 0 .956.956 0 00.764-.95V25.5a1.5 1.5 0 013 0v.344c0 .744.782 1.22 1.405.814.75-.488 1.45-1.044 2.095-1.658a1.5 1.5 0 01-1.5-1.5v-6a1.5 1.5 0 013 0v2.893c0 .955 1.128 1.303 1.545.445A14.442 14.442 0 0029 14.5c0-2.273-.523-4.423-1.455-6.338-.418-.858-1.545-.51-1.545.445V10.5a1.5 1.5 0 01-3 0v-6c0-.04.002-.08.005-.12.053-.668.131-1.548-.424-1.921-.058-.04-.117-.078-.176-.117-.623-.406-1.405.07-1.405.814V3.5a1.5 1.5 0 01-3 0V1.208a.956.956 0 00-.764-.95 14.575 14.575 0 00-5.472 0 .956.956 0 00-.764.95V3.5a1.5 1.5 0 01-3 0v-.344zM13 4.5a1.5 1.5 0 013 0v6a1.5 1.5 0 01-3 0v-6zM9.5 10A1.5 1.5 0 008 11.5v6a1.5 1.5 0 003 0v-6A1.5 1.5 0 009.5 10zm10 0a1.5 1.5 0 00-1.5 1.5v6a1.5 1.5 0 003 0v-6a1.5 1.5 0 00-1.5-1.5zm-5 6a1.5 1.5 0 00-1.5 1.5v6a1.5 1.5 0 003 0v-6a1.5 1.5 0 00-1.5-1.5z" fill="#2B3350"/></svg><svg fill="none" viewBox="0 0 24 24" id="user" xmlns="http://www.w3.org/2000/svg"><path d="M20 21v-2a4 4 0 00-4-4H8a4 4 0 00-4 4v2M12 11a4 4 0 100-8 4 4 0 000 8z" stroke="#959AAE" stroke-width="2" stroke-linecap="round" stroke-linejoin="round"/></svg></svg>